# xmcd
#
# Track frame offsets:
#	150
#	18580
#	35282
#	52519
#	79295
#	95717
#	111451
#	126999
#	138991
#	153171
#	170921
#	186547
#	200375
#	218767
#
# Disc length: 3173 seconds
#
# Revision: 1
# Processed by: cddbd v1.5.2PL0 Copyright (c) Steve Scherf et al.
# Submitted via: audiograbber 1.83.01
#
DISCID=c70c630e
DTITLE=Various Artist - Blues And Roots Volume 3
DYEAR=2006
DGENRE=Blues
TTITLE0=The Others - The Best Part Of Midnight
TTITLE1=Andy Cowan - Voodoo King
TTITLE2=Toby - Mad Man
TTITLE3=Smokestack Lightnin - You Can't Change
TTITLE4=Watch Me Work It - Andrea Marr
TTITLE5=Bluestone - Every Hour Every Day
TTITLE6=Men In Blues - Seeker
TTITLE7=Richie Pavledis - Holly
TTITLE8=Black and Blues - Sweet Baby Jane
TTITLE9=Craig Sinclair - Downstream Blues
TTITLE10=Jacmac - Prayin For Rain
TTITLE11=The Others - The Surrender Of Johnny Vane
TTITLE12=Pugsley Buzzard - Hammer These Tongs
TTITLE13=Blue Shaddy - Walk A Mile
EXTD=
EXTT0=
EXTT1=
EXTT2=
EXTT3=
EXTT4=
EXTT5=
EXTT6=
EXTT7=
EXTT8=
EXTT9=
EXTT10=
EXTT11=
EXTT12=
EXTT13=
PLAYORDER=
